<svg width="24" height="24" viewBox="0 0 24 24" xmlns="http://www.w3.org/2000/svg">
  <g id="happy">
    <path d="M12 2C6.486 2 2 6.486 2 12C2 17.514 6.486 22 12 22C17.514 22 22 17.514 22 12C22 6.486 17.514 2 12 2ZM15.493 8C15.6924 7.99491 15.8908 8.02979 16.0765 8.10259C16.2621 8.17538 16.4314 8.28463 16.5742 8.42387C16.717 8.56311 16.8304 8.72954 16.9079 8.91333C16.9853 9.09712 17.0252 9.29457 17.0251 9.49401C17.0251 9.69346 16.9851 9.89088 16.9075 10.0746C16.8299 10.2584 16.7163 10.4247 16.5735 10.5639C16.4306 10.703 16.2613 10.8121 16.0755 10.8848C15.8898 10.9575 15.6914 10.9922 15.492 10.987C15.1026 10.9768 14.7326 10.8149 14.4608 10.5358C14.189 10.2567 14.037 9.88255 14.0371 9.49301C14.0373 9.10347 14.1895 8.72939 14.4615 8.45049C14.7335 8.17159 15.1036 8.00995 15.493 8ZM8.5 8C8.69705 8.00007 8.89215 8.03894 9.07418 8.11441C9.2562 8.18988 9.42158 8.30046 9.56087 8.43984C9.70016 8.57922 9.81063 8.74467 9.88597 8.92675C9.96132 9.10882 10.0001 9.30395 10 9.501C9.99993 9.69805 9.96106 9.89315 9.88559 10.0752C9.81012 10.2572 9.69954 10.4226 9.56016 10.5619C9.42078 10.7012 9.25533 10.8116 9.07325 10.887C8.89118 10.9623 8.69605 11.0011 8.499 11.001C8.10104 11.0009 7.71944 10.8427 7.43813 10.5612C7.15683 10.2797 6.99887 9.89796 6.999 9.5C6.99913 9.10204 7.15735 8.72044 7.43884 8.43913C7.72033 8.15783 8.10204 7.99987 8.5 8ZM12 18C7 18 6 13 6 13H18C18 13 17 18 12 18Z" fill-opacity="0.8"/>
  </g>
  <g id="smile">
    <path d="M12 22C17.514 22 22 17.514 22 12C22 6.486 17.514 2 12 2C6.486 2 2 6.486 2 12C2 17.514 6.486 22 12 22ZM15.493 9C15.6924 8.99491 15.8908 9.02979 16.0765 9.10259C16.2621 9.17538 16.4314 9.28463 16.5742 9.42387C16.717 9.56311 16.8304 9.72954 16.9079 9.91333C16.9853 10.0971 17.0252 10.2946 17.0251 10.494C17.0251 10.6935 16.9851 10.8909 16.9075 11.0746C16.8299 11.2584 16.7163 11.4247 16.5735 11.5639C16.4306 11.703 16.2613 11.8121 16.0755 11.8848C15.8898 11.9575 15.6914 11.9922 15.492 11.987C15.1026 11.9768 14.7326 11.8149 14.4608 11.5358C14.189 11.2567 14.037 10.8826 14.0371 10.493C14.0373 10.1035 14.1895 9.72939 14.4615 9.45049C14.7335 9.17159 15.1036 9.00995 15.493 9ZM11.192 15.919C11.7253 16.0262 12.2747 16.0262 12.808 15.919C13.062 15.8663 13.312 15.7887 13.558 15.686C13.792 15.586 14.022 15.462 14.237 15.318C14.4457 15.1753 14.6427 15.0123 14.828 14.829C15.0113 14.6463 15.1743 14.449 15.317 14.237L16.975 15.354C16.5445 15.9933 15.9948 16.5437 15.356 16.975C14.7057 17.4139 13.9755 17.7211 13.207 17.879C12.4103 18.0395 11.5896 18.0391 10.793 17.878C10.0241 17.7228 9.29385 17.4158 8.645 16.975C8.00699 16.5417 7.45694 15.9913 7.024 15.353L8.682 14.236C8.826 14.448 8.98867 14.6447 9.17 14.826C9.72255 15.3803 10.4256 15.7603 11.192 15.919ZM8.5 9C8.69705 9.00007 8.89215 9.03894 9.07418 9.11441C9.2562 9.18988 9.42158 9.30046 9.56087 9.43984C9.70016 9.57922 9.81063 9.74467 9.88597 9.92675C9.96132 10.1088 10.0001 10.304 10 10.501C9.99993 10.698 9.96106 10.8932 9.88559 11.0752C9.81012 11.2572 9.69954 11.4226 9.56016 11.5619C9.42078 11.7012 9.25533 11.8116 9.07325 11.887C8.89118 11.9623 8.69605 12.0011 8.499 12.001C8.10104 12.0009 7.71944 11.8427 7.43813 11.5612C7.15683 11.2797 6.99887 10.898 6.999 10.5C6.99913 10.102 7.15735 9.72044 7.43884 9.43913C7.72033 9.15783 8.10204 8.99987 8.5 9Z" fill-opacity="0.8"/>
  </g>
  <g id="upside-down">
    <path d="M12 2C6.486 2 2 6.486 2 12C2 17.514 6.486 22 12 22C17.514 22 22 17.514 22 12C22 6.486 17.514 2 12 2ZM8.507 15C8.30762 15.0051 8.10923 14.9702 7.92355 14.8974C7.73786 14.8246 7.56863 14.7154 7.42583 14.5761C7.28303 14.4369 7.16956 14.2705 7.09211 14.0867C7.01466 13.9029 6.97479 13.7054 6.97485 13.506C6.97492 13.3065 7.01492 13.1091 7.0925 12.9254C7.17008 12.7416 7.28366 12.5753 7.42655 12.4361C7.56944 12.297 7.73874 12.1879 7.92448 12.1152C8.11021 12.0425 8.30862 12.0078 8.508 12.013C8.89741 12.0232 9.26743 12.1851 9.5392 12.4642C9.81097 12.7433 9.96298 13.1174 9.96285 13.507C9.96272 13.8965 9.81045 14.2706 9.5385 14.5495C9.26654 14.8284 8.89641 14.9901 8.507 15ZM12.808 8.081C12.2747 7.97379 11.7253 7.97379 11.192 8.081C10.9346 8.13381 10.6831 8.21186 10.441 8.314C10.207 8.414 9.978 8.538 9.763 8.682C9.33835 8.97177 8.97198 9.33881 8.683 9.764L7.024 8.646C7.67534 7.68152 8.59187 6.92614 9.663 6.471C10.0266 6.31752 10.4044 6.20029 10.791 6.121C11.588 5.96006 12.409 5.96006 13.206 6.121C13.9749 6.27622 14.7051 6.5832 15.354 7.024C15.992 7.45733 16.5421 8.00772 16.975 8.646L15.317 9.763C15.1736 9.55118 15.0102 9.35361 14.829 9.173C14.2766 8.61923 13.5739 8.23957 12.808 8.081ZM15.5 15C15.102 14.9999 14.7204 14.8417 14.4391 14.5602C14.1578 14.2787 13.9999 13.897 14 13.499C14.0001 13.101 14.1583 12.7194 14.4398 12.4381C14.7213 12.1568 15.103 11.9989 15.501 11.999C15.899 11.9991 16.2806 12.1573 16.5619 12.4388C16.8432 12.7203 17.0011 13.102 17.001 13.5C17.0009 13.898 16.8427 14.2796 16.5612 14.5609C16.2797 14.8422 15.898 15.0001 15.5 15Z" fill-opacity="0.8"/>
  </g>
  <g id="ghost">
    <path d="M3 11V19H3.051C3.296 20.692 4.741 22 6.5 22C7.674 22 8.574 21.583 9.172 20.826C9.54388 21.1994 9.98605 21.4954 10.473 21.697C10.9599 21.8985 11.4819 22.0016 12.0089 22.0003C12.5359 21.999 13.0574 21.8934 13.5433 21.6894C14.0293 21.4854 14.47 21.1872 14.84 20.812C15.441 21.574 16.344 22 17.5 22C19.43 22 21 20.43 21 18.5V11C21 6.038 16.963 2 12 2C7.037 2 3 6.038 3 11ZM9 12C7.897 12 7 11.103 7 10C7 8.897 7.897 8 9 8C10.103 8 11 8.897 11 10C11 11.103 10.103 12 9 12ZM15 8C16.103 8 17 8.897 17 10C17 11.103 16.103 12 15 12C13.897 12 13 11.103 13 10C13 8.897 13.897 8 15 8Z" fill-opacity="0.8"/>
  </g>
  <g id="trash">
    <path d="M20.7264 5.27586H16.0364V4.38586C16.0327 3.75568 15.7813 3.15224 15.3364 2.70586C15.1148 2.48349 14.8514 2.30715 14.5613 2.18702C14.2713 2.06688 13.9603 2.00531 13.6464 2.00586H10.3864C10.0725 2.00531 9.76152 2.06688 9.47147 2.18702C9.18142 2.30715 8.91801 2.48349 8.69641 2.70586C8.25522 3.15386 8.00746 3.7571 8.00641 4.38586V5.27586H3.31641C3.11749 5.27586 2.92673 5.35488 2.78608 5.49553C2.64542 5.63618 2.56641 5.82695 2.56641 6.02586C2.56641 6.22478 2.64542 6.41554 2.78608 6.55619C2.92673 6.69685 3.11749 6.77586 3.31641 6.77586H4.73641V18.5359C4.73233 18.9916 4.8186 19.4437 4.99024 19.8659C5.16188 20.2882 5.41549 20.6722 5.73641 20.9959C6.39074 21.637 7.27034 21.996 8.18641 21.9959H15.8064C16.7225 21.996 17.6021 21.637 18.2564 20.9959C18.5773 20.6722 18.8309 20.2882 19.0026 19.8659C19.1742 19.4437 19.2605 18.9916 19.2564 18.5359V6.77586H20.6864C20.8853 6.77586 21.0761 6.69685 21.2167 6.55619C21.3574 6.41554 21.4364 6.22478 21.4364 6.02586C21.4364 5.82695 21.3574 5.63618 21.2167 5.49553C21.0761 5.35488 20.8853 5.27586 20.6864 5.27586H20.7264ZM9.52641 4.38586C9.52645 4.27044 9.54946 4.15618 9.5941 4.04973C9.63873 3.94329 9.70411 3.84679 9.78641 3.76586C9.95173 3.60236 10.1739 3.50919 10.4064 3.50586H13.6664C13.7834 3.50513 13.8994 3.52775 14.0076 3.5724C14.1158 3.61704 14.214 3.68281 14.2964 3.76586C14.4599 3.93118 14.5531 4.15337 14.5564 4.38586V5.27586H9.55641L9.52641 4.38586ZM10.8564 16.9959C10.8564 17.2611 10.751 17.5154 10.5635 17.703C10.376 17.8905 10.1216 17.9959 9.85641 17.9959C9.59119 17.9959 9.33684 17.8905 9.1493 17.703C8.96176 17.5154 8.85641 17.2611 8.85641 16.9959V11.5659C8.85641 11.3006 8.96176 11.0463 9.1493 10.8588C9.33684 10.6712 9.59119 10.5659 9.85641 10.5659C10.1216 10.5659 10.376 10.6712 10.5635 10.8588C10.751 11.0463 10.8564 11.3006 10.8564 11.5659V16.9959ZM15.2164 16.9959C15.2164 17.2611 15.111 17.5154 14.9235 17.703C14.736 17.8905 14.4816 17.9959 14.2164 17.9959C13.9512 17.9959 13.6968 17.8905 13.5093 17.703C13.3218 17.5154 13.2164 17.2611 13.2164 16.9959V11.5659C13.2164 11.3006 13.3218 11.0463 13.5093 10.8588C13.6968 10.6712 13.9512 10.5659 14.2164 10.5659C14.4816 10.5659 14.736 10.6712 14.9235 10.8588C15.111 11.0463 15.2164 11.3006 15.2164 11.5659V16.9959Z" fill-opacity="0.8"/>
  </g>
  <g id="edit">
    <path d="M18.5793 2.94495C18.2042 2.57001 17.6956 2.35938 17.1653 2.35938C16.6349 2.35938 16.1263 2.57001 15.7512 2.94495L14.1063 4.59095L19.4093 9.89395L21.0543 8.24995C21.2401 8.06422 21.3874 7.84371 21.488 7.601C21.5886 7.3583 21.6403 7.09816 21.6403 6.83545C21.6403 6.57274 21.5886 6.3126 21.488 6.06989C21.3874 5.82719 21.2401 5.60668 21.0543 5.42095L18.5793 2.94495ZM17.9953 11.3079L12.6922 6.00495L3.85725 14.8399L2.78125 21.2199L9.16125 20.1429L17.9953 11.3079Z" fill-opacity="0.8"/>
  </g>
  <g id="search">
    <path fill-rule="evenodd" clip-rule="evenodd" d="M14.3831 15.4451C13.0351 16.5222 11.3258 17.0422 9.60631 16.8984C7.88682 16.7546 6.28765 15.9579 5.13727 14.6718C3.98688 13.3857 3.3726 11.708 3.42058 9.98318C3.46857 8.25835 4.17518 6.61736 5.39529 5.39725C6.61541 4.17713 8.25639 3.47052 9.98122 3.42254C11.7061 3.37455 13.3838 3.98883 14.6699 5.13922C15.9559 6.28961 16.7527 7.88877 16.8965 9.60827C17.0403 11.3278 16.5202 13.0371 15.4431 14.3851L20.5991 19.5401C20.6728 19.6088 20.7319 19.6916 20.7729 19.7836C20.8139 19.8756 20.836 19.9749 20.8377 20.0756C20.8395 20.1763 20.821 20.2763 20.7833 20.3697C20.7455 20.4631 20.6894 20.5479 20.6182 20.6191C20.547 20.6903 20.4621 20.7465 20.3687 20.7842C20.2753 20.8219 20.1753 20.8405 20.0746 20.8387C19.9739 20.8369 19.8746 20.8149 19.7826 20.7739C19.6906 20.7329 19.6078 20.6738 19.5391 20.6001L14.3831 15.4451ZM6.45814 13.8831C5.72418 13.1491 5.22429 12.2139 5.02165 11.1959C4.81901 10.1778 4.92271 9.12253 5.31965 8.16339C5.71659 7.20425 6.38895 6.38431 7.25175 5.80719C8.11456 5.23007 9.12908 4.92167 10.1671 4.92097C11.2051 4.92027 12.2201 5.22731 13.0837 5.80327C13.9472 6.37923 14.6207 7.19826 15.0189 8.15686C15.4172 9.11546 15.5223 10.1706 15.321 11.1889C15.1197 12.2073 14.6211 13.1431 13.8881 13.8781L13.8831 13.8831L13.8781 13.8871C12.8932 14.8697 11.5586 15.4212 10.1673 15.4205C8.77605 15.4197 7.44198 14.8668 6.45814 13.8831Z" fill-opacity="0.6"/>
  </g>
  <g id="cross">
    <path d="M17.5368 4.98991C17.6939 4.82389 17.8826 4.69104 18.0918 4.59921C18.3011 4.50737 18.5266 4.45842 18.7551 4.45524C18.9836 4.45207 19.2104 4.49473 19.4222 4.58071C19.6339 4.66669 19.8262 4.79424 19.9878 4.95583C20.1494 5.11741 20.277 5.30975 20.3629 5.52148C20.4489 5.7332 20.4916 5.96002 20.4884 6.18851C20.4852 6.41701 20.4363 6.64255 20.3444 6.8518C20.2526 7.06105 20.1197 7.24977 19.9537 7.4068L14.9444 12.4161C14.9378 12.4227 14.9325 12.4306 14.9289 12.4392C14.9253 12.4479 14.9235 12.4572 14.9235 12.4665C14.9235 12.4759 14.9253 12.4852 14.9289 12.4938C14.9325 12.5025 14.9378 12.5104 14.9444 12.517L19.9537 17.5263C20.1146 17.6845 20.2426 17.8731 20.3303 18.0811C20.4179 18.289 20.4635 18.5123 20.4645 18.738C20.4654 18.9637 20.4217 19.1873 20.3358 19.396C20.2499 19.6047 20.1235 19.7943 19.9639 19.9539C19.8043 20.1135 19.6147 20.2399 19.4061 20.3259C19.1974 20.4119 18.9738 20.4557 18.7481 20.4548C18.5224 20.4539 18.2991 20.4083 18.0911 20.3207C17.8832 20.2331 17.6946 20.1052 17.5363 19.9443L12.527 14.935C12.5204 14.9284 12.5125 14.9231 12.5038 14.9195C12.4952 14.9159 12.4859 14.9141 12.4765 14.9141C12.4672 14.9141 12.4579 14.9159 12.4492 14.9195C12.4406 14.9231 12.4327 14.9284 12.4261 14.935L7.4168 19.9443C7.25854 20.1052 7.06998 20.2332 6.86202 20.3208C6.65405 20.4085 6.43079 20.4541 6.2051 20.4551C5.97942 20.456 5.75578 20.4123 5.54709 20.3263C5.33839 20.2404 5.14877 20.114 4.98917 19.9545C4.82957 19.7949 4.70314 19.6053 4.61717 19.3966C4.5312 19.188 4.4874 18.9643 4.48829 18.7387C4.48919 18.513 4.53475 18.2897 4.62237 18.0817C4.70998 17.8737 4.83791 17.6851 4.99877 17.5268L10.0081 12.5175C10.0147 12.5109 10.02 12.5031 10.0236 12.4944C10.0272 12.4858 10.029 12.4765 10.029 12.4671C10.029 12.4577 10.0272 12.4485 10.0236 12.4398C10.02 12.4312 10.0147 12.4233 10.0081 12.4167L4.99877 7.40737C4.68242 7.0859 4.50591 6.65245 4.5077 6.20144C4.50948 5.75042 4.68941 5.31838 5.00829 4.99943C5.32717 4.68047 5.75917 4.50044 6.21018 4.49855C6.6612 4.49666 7.09469 4.67307 7.41623 4.98934L12.4255 9.99864C12.4321 10.0053 12.44 10.0105 12.4487 10.0141C12.4573 10.0177 12.4666 10.0196 12.476 10.0196C12.4853 10.0196 12.4946 10.0177 12.5033 10.0141C12.5119 10.0105 12.5198 10.0053 12.5264 9.99864L17.5368 4.98991Z" fill-opacity="0.7"/>
  </g>
  <g id="check">
    <path d="M8.28741 19.7365L1.3142 12.7633C0.895266 12.3444 0.895266 11.6651 1.3142 11.2462L2.83134 9.72899C3.25027 9.31001 3.92957 9.31001 4.34851 9.72899L9.046 14.4264L19.1075 4.36498C19.5264 3.94605 20.2057 3.94605 20.6247 4.36498L22.1418 5.88216C22.5607 6.3011 22.5607 6.98035 22.1418 7.39933L9.80458 19.7366C9.3856 20.1555 8.70634 20.1555 8.28741 19.7365Z"/>
  </g>
</svg>
